<?xml version="1.0" encoding="utf-8"?>
<!-- Generator: Adobe Illustrator 18.0.0, SVG Export Plug-In . SVG Version: 6.00 Build 0)  -->
<!DOCTYPE svg PUBLIC "-//W3C//DTD SVG 1.1//EN" "http://www.w3.org/Graphics/SVG/1.1/DTD/svg11.dtd">
<svg version="1.1" id="Layer_1" xmlns="http://www.w3.org/2000/svg" xmlns:xlink="http://www.w3.org/1999/xlink" x="0px" y="0px"
	 viewBox="0 0 100 100" enable-background="new 0 0 100 100" xml:space="preserve">
<g>
	<circle fill="#2A357B" cx="50" cy="50" r="48.3"/>
</g>
<path fill="#FFFFFF" d="M83.8,57.5c-2-1.3-3.2-3-4-4.6c3.7-3.9,5.9-9,5.9-14.4c0-12.6-11.8-22.9-26.3-22.9c-12,0-22.1,7-25.3,16.6
	c1.9-0.6,3.9-1,6-1.1c3.4-6.1,10.7-10.4,19.3-10.4c11.7,0,21.2,8,21.2,17.8c0,5.4-2.9,10.2-7.4,13.5c0.5,1.9,0.8,3.9,0.8,5.9
	c3.6,1.5,7.2,1.4,9.4,1.1C84.2,58.8,84.4,57.9,83.8,57.5L83.8,57.5z M83.8,57.5"/>
<path fill="#FFFFFF" d="M43.6,34.8C28.9,34.8,17,45.2,17,58.1c0,5.5,2.2,10.6,5.9,14.6c-0.7,1.8-1.9,3.9-4.2,5.4
	c-0.6,0.4-0.4,1.2,0.3,1.3c2.4,0.3,6.4,0.4,10.2-1.8c4.2,2.4,9.1,3.7,14.4,3.7c14.7,0,26.6-10.4,26.6-23.3
	C70.2,45.2,58.3,34.8,43.6,34.8L43.6,34.8z M49.3,65.9"/>
<g>
	<circle fill="#194789" cx="31.5" cy="59" r="2.6"/>
	<circle fill="#194789" cx="43" cy="59" r="2.6"/>
	<circle fill="#194789" cx="54.5" cy="59" r="2.6"/>
</g>
</svg>
