<?xml version="1.0" encoding="utf-8"?>
<!-- Generator: Adobe Illustrator 18.0.0, SVG Export Plug-In . SVG Version: 6.00 Build 0)  -->
<!DOCTYPE svg PUBLIC "-//W3C//DTD SVG 1.1//EN" "http://www.w3.org/Graphics/SVG/1.1/DTD/svg11.dtd">
<svg version="1.1" id="Layer_1" xmlns="http://www.w3.org/2000/svg" xmlns:xlink="http://www.w3.org/1999/xlink" x="0px" y="0px"
	 viewBox="0 0 100 100" enable-background="new 0 0 100 100" xml:space="preserve">
<g>
	<path fill="#2A357B" d="M50.7,7C27.1,6.6,7.6,25.5,7.2,49.1C7,62.5,13,74.5,22.5,82.5c0.6-0.5,1.3-1,2-1.4l12.8-7
		c1.7-0.9,2.7-2.7,2.7-4.6v-5.2c0,0-3.7-4.5-5.2-10.7c-1.2-0.8-2-2.1-2-3.6v-5.7c0-1.3,0.6-2.4,1.4-3.2v-8.3c0,0-1.7-12.9,15.7-12.9
		c17.4,0,15.7,12.9,15.7,12.9v8.3c0.9,0.8,1.4,1.9,1.4,3.2V50c0,1.9-1.3,3.5-3,4.1c-1,3-2.4,5.9-4.2,8.6c-0.5,0.7-0.9,1.2-1.3,1.7
		v5.4c0,2,1.1,3.8,2.9,4.7l13.7,6.8c0.8,0.4,1.6,0.9,2.2,1.5c9.2-7.7,15.2-19.2,15.4-32.1C93.2,26.9,74.4,7.4,50.7,7L50.7,7z
		 M50.7,7"/>
	<circle fill="none" stroke="#2A357B" stroke-width="2" stroke-miterlimit="10" cx="50" cy="50" r="48.3"/>
</g>
</svg>
