<?xml version="1.0" encoding="utf-8"?>
<!-- Generator: Adobe Illustrator 16.0.0, SVG Export Plug-In . SVG Version: 6.00 Build 0)  -->
<!DOCTYPE svg PUBLIC "-//W3C//DTD SVG 1.1//EN" "http://www.w3.org/Graphics/SVG/1.1/DTD/svg11.dtd">
<svg version="1.1" id="Layer_1" xmlns="http://www.w3.org/2000/svg" xmlns:xlink="http://www.w3.org/1999/xlink" x="0px" y="0px"
	 width="640px" height="480px" viewBox="0 0 640 480" enable-background="new 0 0 640 480" xml:space="preserve">
<g>
	<circle fill="#FED02F" cx="319" cy="240" r="231.84"/>
</g>
<g>
	<circle fill="#2A357B" cx="319.5" cy="239.5" r="182.34"/>
</g>
<g>
	<path fill="#FFFFFF" d="M447.101,267.813c-7.551-4.907-12.081-11.325-15.101-17.365c13.968-14.724,22.273-33.977,22.273-54.362
		c0-47.567-44.548-86.451-99.287-86.451c-45.302,0-83.431,26.426-95.511,62.667c7.172-2.265,14.723-3.775,22.651-4.152
		c12.835-23.029,40.394-39.262,72.86-39.262c44.17,0,80.033,30.201,80.033,67.198c0,20.386-10.948,38.506-27.936,50.964
		c1.887,7.174,3.02,14.724,3.02,22.273c13.591,5.663,27.181,5.286,35.487,4.153C448.61,272.722,449.365,269.323,447.101,267.813
		L447.101,267.813z"/>
	<path fill="#FFFFFF" d="M295.339,182.118c-55.495,0-100.419,39.261-100.419,87.961c0,20.763,8.306,40.016,22.273,55.117
		c-2.643,6.795-7.173,14.723-15.856,20.386c-2.265,1.51-1.51,4.529,1.133,4.907c9.061,1.133,24.161,1.511,38.507-6.795
		c15.855,9.061,34.353,13.968,54.362,13.968c55.495,0,100.419-39.261,100.419-87.961
		C395.758,221.379,350.834,182.118,295.339,182.118L295.339,182.118z"/>
	<g>
		<circle fill="#194789" cx="249.66" cy="273.477" r="9.815"/>
		<circle fill="#194789" cx="293.074" cy="273.477" r="9.815"/>
		<circle fill="#194789" cx="336.488" cy="273.477" r="9.815"/>
	</g>
</g>
</svg>
