<?xml version="1.0" encoding="utf-8"?>
<!-- Generator: Adobe Illustrator 18.0.0, SVG Export Plug-In . SVG Version: 6.00 Build 0)  -->
<!DOCTYPE svg PUBLIC "-//W3C//DTD SVG 1.1//EN" "http://www.w3.org/Graphics/SVG/1.1/DTD/svg11.dtd">
<svg version="1.1" id="Layer_1" xmlns="http://www.w3.org/2000/svg" xmlns:xlink="http://www.w3.org/1999/xlink" x="0px" y="0px"
	 viewBox="0 0 100 100" enable-background="new 0 0 100 100" xml:space="preserve">
<g>
	<circle fill="none" stroke="#2A357B" stroke-width="2" stroke-miterlimit="10" cx="50" cy="50.4" r="48.3"/>
	<circle fill="#2A357B" cx="50" cy="50.4" r="43.1"/>
</g>
<g>
	<polygon fill="#726658" points="31.1,45.8 32.9,56.2 28.5,65.6 29.8,67.3 40.4,66.5 72.1,69.2 72.1,63.6 66.2,57.5 68.1,47 	"/>
	<polygon fill="#F7B64C" points="41.2,44.4 50.3,53.6 59.4,44.4 	"/>
	<path fill="#E6E7E8" d="M61.1,69c-7.2,0.9-14.3,0.9-21.5,0c1-6.3,1-12.7,0-19.2c7.2-0.9,14.3-0.9,21.5,0C60,56.4,60,62.7,61.1,69z"
		/>
	<path fill="#F1F2F2" stroke="#F1F2F2" stroke-miterlimit="10" d="M35.3,30.1v14.2c0,6.5,4,12.4,10.2,14.4
		c10.3,3.3,19.9-4.4,19.9-14.2V30.1L35.3,30.1L35.3,30.1z"/>
	<path fill="#726658" d="M50.3,17c-9.3,0-17,7.5-17,16.8h33.9C67.2,24.5,59.6,17,50.3,17z"/>
	<path fill="#FFCA06" d="M70.3,34.5h-2.1c0-10.5-8.1-19-18-19s-18,8.6-18,19h-2.1c0-11.6,9-20.9,20-20.9S70.3,23,70.3,34.5z"/>
	<path fill="#FFCA06" d="M62.8,54.6h-9.7v-1.9h10c1.6,0,3-1.3,3-3v-4h2.1v3.7C68.1,52.2,65.8,54.6,62.8,54.6z"/>
	<path fill="#ADB3BA" d="M52.5,51.2h-4.4c-1.2,0-2.1,1-2.1,2.1v0.4c0,1.2,1,2.1,2.1,2.1h4.4c1.2,0,2.1-1,2.1-2.1v-0.4
		C54.6,52.2,53.7,51.2,52.5,51.2z"/>
	<g>
		<path fill="#FFCA06" d="M72.8,36.2h-1.2v7.5h1.5c0.7,0,1.2-0.5,1.2-1.2v-4.9C74.3,36.8,73.6,36.2,72.8,36.2z"/>
		<path fill="#FFCA06" d="M26.3,37.5v4.9c0,0.7,0.5,1.2,1.2,1.2h1.5V36h-1.2C27,36.2,26.3,36.8,26.3,37.5z"/>
	</g>
	<g>
		<path fill="#2A357B" d="M69,33.8h-3.7v11.9H69c1.5,0,2.7-1.2,2.7-2.7v-6.6C71.7,35,70.5,33.8,69,33.8z"/>
		<path fill="#2A357B" d="M28.9,36.5v6.6c0,1.5,1.2,2.7,2.7,2.7h3.7V33.8h-3.7C30.1,33.8,28.9,35,28.9,36.5z"/>
	</g>
	<g>
		<polygon fill="#F1F2F2" points="58.7,33.8 61.1,30.1 57.1,33.8 		"/>
		<polygon fill="#F1F2F2" points="47.2,33.8 50.3,30.2 45.3,33.8 		"/>
	</g>
	<polygon fill="#E6E7E8" points="40.1,63.7 50.3,73.9 60.5,63.7 	"/>
	<path fill="#2A357B" stroke="#FFFFFF" stroke-miterlimit="10" d="M61.8,63.7h-1.5L50.1,73.9L40,63.7h-1.8
		c-9.7,0-17.6,8.7-17.6,18.4c0,0,10.8,8.3,20,10.2C54,95,60.2,92.6,68.1,89.2c3.3-1.4,11.2-6.6,11.2-6.6
		C79.6,72.7,71.7,63.7,61.8,63.7z"/>
</g>
<g>
	<path id="XMLID_5_" fill="#2A357B" stroke="#FFFFFF" stroke-width="0.5" stroke-miterlimit="10" d="M67.5,74.9h0.2
		c0.3,0,0.6,0,0.9,0c0.2,0,0.4,0,0.5,0.2c0.2,0.2,0.3,0.4,0.4,0.7c0.1,0.2,0.2,0.4,0.3,0.7c0,0.1,0,0.2,0,0.2
		c-0.1,0.1-0.2,0.1-0.3,0.1c-2,0-3.9,0.3-5.9,0.7c-0.6,0.1-1.2,0.3-1.8,0.5c-0.2,0-0.4,0.1-0.6,0c-0.2-0.1-0.2-0.3-0.3-0.5
		c-0.1-0.3-0.2-0.6-0.3-0.9c0-0.1-0.1-0.3,0-0.4c0.1-0.1,0.3-0.2,0.5-0.3c0.6-0.2,1.3-0.4,2-0.5c0.8-0.1,1.6-0.2,2.4-0.3
		c0.3,0,0.6-0.1,0.9-0.1C66.7,74.9,67.1,74.9,67.5,74.9z"/>
	<g id="XMLID_3_">
		<path id="XMLID_4_" fill="#FFCA06" d="M68.6,77.1c0.5,0,1,0,1.5,0c0.2,0,0.4,0,0.6,0.2c0.2,0.2,0.2,0.4,0.3,0.6
			c0.1,0.3,0.3,0.6,0.4,1c0,0.1,0.1,0.3,0,0.3c-0.2,0.1-0.4,0.1-0.6,0.2c-0.7,0.1-1.3,0.2-2,0.3c-1.3,0.3-2.6,0.6-3.9,0.9
			c-1.3,0.3-2.6,0.7-3.9,1.2c-0.2,0.1-0.5,0.2-0.8,0.2c-0.1,0-0.3,0-0.4-0.1c-0.1-0.1-0.2-0.3-0.2-0.5c-0.1-0.4-0.2-0.8-0.3-1.3
			c0-0.2-0.1-0.4,0-0.6c0-0.2,0.2-0.3,0.3-0.3c0.3-0.2,0.6-0.2,0.9-0.4c0.6-0.2,1.2-0.4,1.9-0.6c1.3-0.3,2.6-0.6,4-0.8
			C67,77.2,67.8,77.1,68.6,77.1z"/>
	</g>
	<g id="XMLID_1_">
		<path id="XMLID_2_" fill="#E72925" d="M70,79.8c0.2,0,0.4-0.1,0.6,0c0.2,0.1,0.2,0.3,0.3,0.4c0.2,0.4,0.3,0.8,0.4,1.2
			c0.1,0.2,0.1,0.4,0.1,0.6c0,0.2-0.2,0.3-0.4,0.4c-0.5,0.2-1,0.4-1.4,0.5c-1.3,0.5-2.6,1-3.8,1.5c-0.3,0.1-0.6,0.2-0.8,0.3
			c-0.2,0-0.3,0-0.5-0.1c-0.1-0.1-0.2-0.3-0.3-0.5c-0.1-0.3-0.2-0.6-0.3-1c-0.2-0.4-0.3-0.7-0.4-1.1c-0.1-0.2-0.1-0.4,0-0.5
			c0.1-0.1,0.3-0.2,0.4-0.3c0.9-0.2,1.7-0.4,2.5-0.7c0.7-0.2,1.5-0.4,2.2-0.5C69.1,80,69.6,79.8,70,79.8z"/>
	</g>
</g>
</svg>
